<svg height="480pt" viewBox="0 0 480 480" width="480pt" xmlns="http://www.w3.org/2000/svg"><path d="m0 240h480v240h-480zm0 0" fill="#b3b3b3"/><path d="m0 240h456v240h-456zm0 0" fill="#ccc"/><path d="m0 176h480v64h-480zm0 0" fill="#2cb7f1"/><path d="m0 176h456v64h-456zm0 0" fill="#56c5f4"/><path d="m467.871094 176c7.664062-11.441406 12.128906-25.199219 12.128906-40 0-39.769531-32.230469-72-72-72-18.601562 0-35.496094 7.113281-48.273438 18.6875-2.703124-32.855469-30.175781-58.6875-63.726562-58.6875-13.894531 0-26.726562 4.480469-37.214844 12-14.3125-21.679688-38.863281-36-66.785156-36-27.984375 0-52.574219 14.390625-66.871094 36.152344-6.527344-2.65625-13.648437-4.152344-21.128906-4.152344-28.214844 0-51.488281 20.886719-55.367188 48.03125-.21875 0-.417968-.03125-.632812-.03125-26.511719 0-48 21.488281-48 48s21.488281 48 48 48" fill="#8c6239"/><path d="m408 88c-18.601562 0-35.496094 7.113281-48.273438 18.6875-2.703124-32.855469-30.175781-58.6875-63.726562-58.6875-13.894531 0-26.726562 4.480469-37.214844 12-14.3125-21.679688-38.863281-36-66.785156-36-27.984375 0-52.574219 14.390625-66.871094 36.152344-6.527344-2.65625-13.648437-4.152344-21.128906-4.152344-28.214844 0-51.488281 20.886719-55.367188 48.03125-.21875 0-.417968-.03125-.632812-.03125-22.359375 0-41.089844 15.3125-46.425781 36 5.335937 20.6875 24.066406 36 46.425781 36h419.871094c5.535156-8.273438 9.328125-17.777344 11.050781-27.984375-5.714844-34.046875-35.25-60.015625-70.921875-60.015625zm0 0" fill="#a67c52"/><g fill="#175e7c"><path d="m32 200h16v16h-16zm0 0"/><path d="m64 200h16v16h-16zm0 0"/><path d="m96 200h16v16h-16zm0 0"/><path d="m128 200h16v16h-16zm0 0"/><path d="m336 200h128v16h-128zm0 0"/></g><path d="m456 136h-16c0-17.648438-14.351562-32-32-32v-16c26.472656 0 48 21.527344 48 48zm0 0" fill="#754c24"/><path d="m48 152c-13.230469 0-24-10.769531-24-24s10.769531-24 24-24v16c-4.40625 0-8 3.585938-8 8s3.59375 8 8 8zm0 0" fill="#754c24"/><path d="m120 264c-3.320312 0-6.296875 2.046875-7.480469 5.152344l-64 168 14.953125 5.703125 19.375-50.855469h74.304688l19.367187 50.847656 14.953125-5.703125-64-168c-1.175781-3.097656-4.152344-5.144531-7.472656-5.144531zm-31.054688 112 31.054688-81.527344 31.054688 81.527344zm0 0" fill="#4d4d4d"/><path d="m304 272h-88c-4.414062 0-8 3.574219-8 8v160h16v-88h80c4.414062 0 8-3.574219 8-8v-64c0-4.425781-3.585938-8-8-8zm-8 64h-72v-48h72zm0 0" fill="#4d4d4d"/><path d="m408 288v-16h-80v16h32v136h-32v16h80v-16h-32v-136zm0 0" fill="#4d4d4d"/></svg>